Coordinates
version=1
nRows=24
nColumns=24
inDegrees=yes

Units are S.I. units (second, meters, Newtons, ...)
Angles are in degrees.

endheader
time	pelvis_tilt	pelvis_list	pelvis_rotation	pelvis_tx	pelvis_ty	pelvis_tz	hip_flexion_r	hip_adduction_r	hip_rotation_r	knee_angle_r	ankle_angle_r	subtalar_angle_r	mtp_angle_r	hip_flexion_l	hip_adduction_l	hip_rotation_l	knee_angle_l	ankle_angle_l	subtalar_angle_l	mtp_angle_l	lumbar_extension	lumbar_bending	lumbar_rotation
      5.23000000	     -0.85054296	      5.20149419	     -5.73566672	     -1.80867672	      0.69916407	      0.21414833	     22.29345527	     -3.03476118	      3.54474418	    -71.58705133	      4.16405897	      4.95723056	      0.00000000	      5.39211259	     13.41808037	     22.78328255	     -6.00935177	     -0.69278154	    -31.47616814	      0.00000000	    -14.80359539	     -7.00343093	      2.80427794
      5.24000000	     -0.91828378	      4.61533498	     -5.27341370	     -1.79725583	      0.70046574	      0.21444012	     24.00312085	     -2.08302744	      3.50817991	    -70.85229673	      6.58882078	      3.83583855	      0.00000000	      3.72417435	     12.65438383	     24.14174331	     -4.98331073	     -0.84896105	    -32.39220893	      0.00000000	    -14.97302871	     -6.35157997	      2.18452666
      5.25000000	     -0.99905695	      4.02393713	     -4.83017779	     -1.78593027	      0.70152139	      0.21483944	     25.62655136	     -1.12593796	      3.49757557	    -69.72367710	      8.53972240	      2.48757546	      0.00000000	      2.15843957	     11.85971117	     25.34445849	     -4.04685042	     -0.94668046	    -33.23892473	      0.00000000	    -15.16845053	     -5.72780971	      1.60617058
      5.26000000	     -1.17923568	      3.49888361	     -4.42453812	     -1.77470580	      0.70218235	      0.21537856	     27.28065315	     -0.21098679	      3.56840131	    -68.25366331	      9.93503940	      0.83259225	      0.00000000	      0.83978234	     11.13534379	     26.11715032	     -3.28461033	     -0.72204193	    -33.61416167	      0.00000000	    -15.25163982	     -5.22425759	      1.09120086
      5.27000000	     -1.38027779	      3.04807335	     -4.09788954	     -1.76349103	      0.70245224	      0.21600987	     28.85697342	      0.65687798	      3.82616537	    -66.47912785	     11.01406310	     -0.69512814	      0.00000000	     -0.39951671	     10.47710739	     26.85058434	     -2.58640714	     -0.32984291	    -33.90316260	      0.00000000	    -15.30574568	     -4.82076515	      0.73810632
      5.28000000	     -1.25268011	      2.62252554	     -3.56309928	     -1.75230583	      0.70289283	      0.21647996	     29.88699996	      1.32714089	      3.86376074	    -64.28938875	     11.59221673	     -2.53090189	      0.00000000	     -2.00162662	      9.83335065	     27.95359577	     -1.85287691	     -0.49838050	    -34.87115438	      0.00000000	    -15.83713182	     -4.47026092	     -0.01654519
      5.29000000	     -1.46663565	      2.31657070	     -3.22040624	     -1.74096412	      0.70259938	      0.21718776	     31.17351344	      1.98218895	      4.20575047	    -61.80856994	     11.95010665	     -4.09616576	      0.00000000	     -3.13248909	      9.32430051	     28.49609234	     -1.27846401	     -0.11204972	    -35.14991788	      0.00000000	    -15.82256518	     -4.28992393	     -0.35045673
      5.30000000	     -1.55058264	      2.06674299	     -2.76847951	     -1.72965158	      0.70223992	      0.21776089	     32.12965211	      2.47922416	      4.51403231	    -58.94886397	     12.05833860	     -5.57987781	      0.00000000	     -4.34745216	      8.88220931	     29.16389367	     -0.79984877	      0.23933476	    -35.45483263	      0.00000000	    -16.02144328	     -4.14498985	     -0.91816462
      5.31000000	     -1.42425440	      1.83767654	     -2.30872455	     -1.71830558	      0.70194727	      0.21834046	     32.63784904	      2.90688028	      4.91465787	    -55.69011278	     12.07592220	     -6.67895694	      0.00000000	     -5.76057192	      8.45774110	     29.90784860	     -0.37782526	      0.51785737	    -35.87760801	      0.00000000	    -16.49450181	     -4.03131794	     -1.57825862
      5.32000000	     -1.65961867	      1.70688363	     -1.91013273	     -1.70675223	      0.70099799	      0.21887340	     33.34985990	      3.21532235	      5.43371811	    -52.10235641	     12.11223405	     -7.29430072	      0.00000000	     -6.72044540	      8.16937704	     30.39167867	     -0.08597264	      1.00132837	    -36.00290953	      0.00000000	    -16.40628382	     -4.00026765	     -2.06770395
      5.33000000	     -1.73825783	      1.57705353	     -1.40487857	     -1.69515848	      0.70012775	      0.21926284	     33.62810325	      3.38600168	      5.84312805	    -48.06216117	     12.11359186	     -7.72467883	      0.00000000	     -7.81267733	      7.88392009	     30.94392364	      0.12452937	      1.50451545	    -36.08449519	      0.00000000	    -16.53330962	     -3.94218966	     -2.72122577
      5.34000000	     -1.46897321	      1.47192193	     -0.90503562	     -1.68349301	      0.69955997	      0.21966217	     33.25909714	      3.45964625	      6.26340479	    -43.58747337	     12.19006973	     -7.86566068	      0.00000000	     -9.28215155	      7.61571857	     31.43047741	      0.32669040	      1.94158915	    -36.08786225	      0.00000000	    -17.11765075	     -3.91892911	     -3.41726059
      5.35000000	     -1.41278475	      1.40975719	     -0.46794209	     -1.67160481	      0.69857262	      0.21998922	     32.87322866	      3.46086152	      6.80461563	    -38.76608786	     12.31425255	     -7.59333136	      0.00000000	    -10.49341006	      7.42117225	     31.78713747	      0.44122287	      2.43843216	    -36.00983733	      0.00000000	    -17.35054851	     -3.90192755	     -4.00520177
      5.36000000	     -1.32152514	      1.40055158	     -0.03868657	     -1.65952192	      0.69749347	      0.22024517	     32.19677130	      3.34804590	      7.39272838	    -33.62194114	     12.40541809	     -7.16019707	      0.00000000	    -11.72770986	      7.29230350	     32.06815947	      0.48892247	      2.96139623	    -35.78026057	      0.00000000	    -17.57359361	     -3.91794015	     -4.58505647
      5.37000000	     -1.26502319	      1.43988079	      0.40607204	     -1.64717957	      0.69620783	      0.22043192	     31.32340663	      3.12758567	      8.03954506	    -28.24160983	     12.41950982	     -6.72143492	      0.00000000	    -12.91401872	      7.20651105	     32.38309885	      0.46476883	      3.55016531	    -35.43453588	      0.00000000	    -17.70132010	     -3.95634542	     -5.11232008
      5.38000000	     -0.96581155	      1.56170241	      0.70790980	     -1.63459594	      0.69505989	      0.22073913	     30.01043466	      2.85584625	      8.95360418	    -22.76836296	     12.23306983	     -6.39759617	      0.00000000	    -14.37424469	      7.22435042	     32.42037591	      0.41368664	      4.14829014	    -34.74659690	      0.00000000	    -18.09531268	     -4.11115505	     -5.52963526
      5.39000000	     -0.84344038	      1.79098885	      1.13005000	     -1.62172408	      0.69357340	      0.22076412	     28.78218629	      2.35958619	      9.76613451	    -17.40085617	     11.84573446	     -6.32852473	      0.00000000	    -15.58996994	      7.35445833	     32.60875765	      0.19060621	      4.73671094	    -33.98718764	      0.00000000	    -18.19967271	     -4.31337935	     -6.10151943
      5.40000000	     -0.63636369	      2.12864554	      1.48374245	     -1.60857034	      0.69202005	      0.22076155	     27.43360518	      1.75169967	     10.58817889	    -12.35129692	     11.37846630	     -6.44131650	      0.00000000	    -16.87268596	      7.61303266	     32.74090859	     -0.15246888	      5.39071672	    -32.96687975	      0.00000000	    -18.35270311	     -4.62672028	     -6.56349947
      5.41000000	     -0.44874173	      2.54090553	      1.76146874	     -1.59513105	      0.69035552	      0.22073990	     26.16227740	      1.09306866	     11.16781615	     -7.86383115	     10.93655013	     -6.54225989	      0.00000000	    -18.08845456	      7.97912061	     32.76620988	     -0.64956308	      6.08571496	    -31.66439462	      0.00000000	    -18.42302134	     -5.01272419	     -6.93574842
      5.42000000	     -0.30281593	      2.96772888	      1.96106249	     -1.58143536	      0.68865621	      0.22074280	     25.05446733	      0.49659540	     11.38875861	     -4.13120057	     10.64998639	     -6.48783963	      0.00000000	    -19.18810403	      8.39807605	     32.61328828	     -1.32600728	      6.82498833	    -30.02294936	      0.00000000	    -18.39910361	     -5.40996861	     -7.19898549
      5.43000000	     -0.17155963	      3.32852091	      2.10032247	     -1.56748576	      0.68707153	      0.22078836	     24.09064578	      0.07753846	     11.28154495	     -1.23058318	     10.51554346	     -6.36627830	      0.00000000	    -20.16554805	      8.79031590	     32.19476714	     -2.22646914	      7.63654929	    -27.94943871	      0.00000000	    -18.31630761	     -5.72443285	     -7.35038036
      5.44000000	     -0.04792568	      3.58380767	      2.15049350	     -1.55331174	      0.68567883	      0.22094250	     23.26264976	     -0.10432071	     11.09195336	      0.82046603	     10.41821150	     -6.41514715	      0.00000000	    -20.97953446	      9.13863258	     31.29296490	     -3.40781884	      8.59664685	    -25.21094197	      0.00000000	    -18.19468486	     -5.92385382	     -7.33948646
      5.45000000	      0.05167696	      3.73221507	      2.16113710	     -1.53897392	      0.68450740	      0.22109707	     22.58183435	     -0.09402732	     11.01080668	      2.03863713	     10.26791033	     -6.86567604	      0.00000000	    -21.53802018	      9.44989453	     29.82148438	     -4.97568018	      9.65625021	    -21.76035157	      0.00000000	    -18.03375901	     -5.97307122	     -7.22054481
      5.46000000	      0.02722558	      3.76056029	      2.10886930	     -1.52453591	      0.68348752	      0.22130548	     22.16792828	      0.11702752	     11.05958198	      2.46146947	      9.85631672	     -7.70619968	      0.00000000	    -21.62780014	      9.73014234	     27.45614303	     -7.05775140	     10.84737100	    -17.42918890	      0.00000000	    -17.71899081	     -5.88754607	     -7.04005045
